<?xml version="1.0" standalone="no"?>
<!DOCTYPE svg PUBLIC "-//W3C//DTD SVG 20010904//EN"
 "http://www.w3.org/TR/2001/REC-SVG-20010904/DTD/svg10.dtd">
<svg version="1.0" xmlns="http://www.w3.org/2000/svg"
 width="512.000000pt" height="512.000000pt" viewBox="0 0 512.000000 512.000000"
 preserveAspectRatio="xMidYMid meet">
<metadata>
Created by potrace 1.14, written by Peter Selinger 2001-2017
</metadata>
<g transform="translate(0.000000,512.000000) scale(0.100000,-0.100000)"
fill="#000000" stroke="none">
<path d="M2449 5105 c-52 -14 -132 -55 -169 -88 -14 -12 -43 -45 -65 -72 -58
-72 -103 -111 -165 -142 -124 -61 -214 -62 -382 -6 -98 34 -126 39 -180 36
-85 -5 -161 -28 -222 -67 -115 -74 -174 -169 -199 -322 -20 -120 -56 -195
-127 -265 -71 -69 -141 -104 -250 -123 -139 -24 -187 -46 -269 -121 -53 -48
-81 -92 -109 -167 -40 -107 -34 -197 23 -357 44 -122 38 -231 -19 -343 -32
-63 -61 -97 -136 -158 -72 -59 -93 -84 -128 -150 -71 -134 -67 -290 11 -422
30 -52 50 -73 114 -124 74 -60 110 -103 143 -170 59 -122 59 -221 0 -384 -18
-48 -32 -108 -34 -140 -6 -151 66 -295 190 -381 56 -38 108 -56 213 -75 110
-19 184 -55 252 -124 68 -68 106 -145 125 -255 18 -105 23 -121 54 -178 50
-91 131 -158 235 -196 109 -39 201 -32 349 24 189 71 397 4 516 -168 12 -17
40 -45 61 -62 22 -16 45 -35 52 -40 17 -14 84 -42 131 -54 57 -15 184 -7 241
14 80 30 152 85 205 155 82 110 207 179 333 184 56 2 153 -16 202 -38 186 -84
402 -29 523 133 44 58 77 149 86 232 10 93 72 209 146 271 63 55 135 85 240
103 155 27 253 87 326 200 77 121 90 273 33 400 -90 202 -38 406 141 545 180
141 229 360 124 560 -28 54 -53 82 -119 135 -74 59 -111 103 -144 170 -57 115
-59 214 -10 355 37 103 40 120 42 190 1 76 -20 154 -59 219 -43 71 -68 99
-125 139 -62 42 -108 58 -211 76 -113 19 -190 56 -259 125 -78 79 -113 161
-134 311 -14 102 -104 229 -202 284 -132 75 -253 78 -426 12 -117 -45 -238
-38 -352 19 -59 31 -106 73 -170 152 -22 28 -56 61 -75 74 -19 13 -37 26 -40
29 -8 9 -82 38 -120 48 -51 13 -157 11 -211 -3z"/>
</g>
</svg>
